/* XPM */
static char *_c5034c24c744a0baf52d01a84d715d1MGKX6HpEpcvJlRhc[] = {
/* columns rows colors chars-per-pixel */
"64 64 204 2 ",
"   c #16090F",
".  c #120611",
"X  c #1C0616",
"o  c #140A14",
"O  c #1B0A15",
"+  c #130619",
"@  c #1B0719",
"#  c #1B0A1A",
"$  c #250F0E",
"%  c #34140F",
"&  c #230716",
"*  c #250A15",
"=  c #2B0A16",
"-  c #220718",
";  c #240B1B",
":  c #2B0B1A",
">  c #3C0714",
",  c #330A15",
"<  c #3C0A13",
"1  c #320C18",
"2  c #271312",
"3  c #2C1414",
"4  c #2D1817",
"5  c #27111A",
"6  c #2A121A",
"7  c #331613",
"8  c #3A1612",
"9  c #351914",
"0  c #3C1A13",
"q  c #3D111C",
"w  c #351A19",
"e  c #3A1E18",
"r  c #3D2119",
"t  c #1E0E20",
"y  c #3A2221",
"u  c #5A0B0F",
"i  c #5E100F",
"p  c #400713",
"a  c #430C14",
"s  c #490D13",
"d  c #550E11",
"f  c #5C0E11",
"g  c #471216",
"h  c #4E1213",
"j  c #441C14",
"k  c #4B1E16",
"l  c #4C1F17",
"z  c #491419",
"x  c #431C1A",
"c  c #4B1E18",
"v  c #531113",
"b  c #5C1111",
"n  c #521B17",
"m  c #591C17",
"M  c #640E0F",
"N  c #680E0E",
"B  c #65110F",
"V  c #6B110E",
"C  c #70140E",
"Z  c #630E10",
"A  c #631210",
"S  c #6A1210",
"D  c #641D14",
"F  c #691D16",
"G  c #7A1F12",
"H  c #462015",
"J  c #4A2115",
"K  c #4C2115",
"L  c #4F2315",
"P  c #4D2016",
"I  c #47231C",
"U  c #4D221A",
"Y  c #502316",
"T  c #522416",
"R  c #532616",
"E  c #542417",
"W  c #552716",
"Q  c #592617",
"!  c #552816",
"~  c #592917",
"^  c #542419",
"/  c #562419",
"(  c #592619",
")  c #5A261A",
"_  c #5E271B",
"`  c #5C291A",
"'  c #5E291A",
"]  c #652216",
"[  c #692015",
"{  c #622917",
"}  c #63241A",
"|  c #6B241C",
" . c #61291B",
".. c #622A1C",
"X. c #642A1C",
"o. c #6A2C1E",
"O. c #722416",
"+. c #792917",
"@. c #7B3519",
"#. c #4D2A23",
"$. c #572925",
"%. c #6D2E20",
"&. c #672F2A",
"*. c #66302D",
"=. c #8B2F0F",
"-. c #912F0F",
";. c #822514",
":. c #8D2E15",
">. c #8E3116",
",. c #863918",
"<. c #943216",
"1. c #953B19",
"2. c #9D3B18",
"3. c #AF370E",
"4. c #B0380F",
"5. c #A83D16",
"6. c #B53D12",
"7. c #8E3824",
"8. c #8E3D30",
"9. c #9C441A",
"0. c #A44418",
"q. c #B34214",
"w. c #BB4516",
"e. c #BE4A16",
"r. c #B74618",
"t. c #BA4B1B",
"y. c #AD501D",
"u. c #BA531F",
"i. c #994227",
"p. c #984534",
"a. c #94433A",
"s. c #A64727",
"d. c #A54B24",
"f. c #B24A23",
"g. c #B15A2D",
"h. c #A44E31",
"j. c #A65032",
"k. c #BF632D",
"l. c #BA6937",
"z. c #BF713E",
"x. c #C34C17",
"c. c #CC541B",
"v. c #D2601F",
"b. c #C65A25",
"n. c #D55F23",
"m. c #C25E33",
"M. c #CE622B",
"N. c #CA6A29",
"B. c #D46727",
"V. c #DE6B26",
"C. c #DB6D2B",
"Z. c #DD732D",
"A. c #CA6734",
"S. c #D36C32",
"D. c #D96E30",
"F. c #CA7537",
"G. c #CA753C",
"H. c #D77637",
"J. c #DC7331",
"K. c #DC7C3E",
"L. c #E2732C",
"P. c #E17A35",
"I. c #E17F3A",
"U. c #B56E44",
"Y. c #BB7748",
"T. c #CA7E47",
"R. c #D37E44",
"E. c #D97B41",
"W. c #E48439",
"Q. c #E4833C",
"!. c #DF8443",
"~. c #D3854D",
"^. c #DC8B4B",
"/. c #CD8C56",
"(. c #D68952",
"). c #DF9557",
"_. c #E18542",
"`. c #E48B44",
"'. c #E69047",
"]. c #E3924D",
"[. c #E39452",
"{. c #E39B56",
"}. c #E89955",
"|. c #E49D5B",
" X c #CA9668",
".X c #E59F63",
"XX c #E4A364",
"oX c #E5AB65",
"OX c #E6AD6B",
"+X c #E8AF6C",
"@X c #E7B16B",
"#X c #E6B879",
"$X c #E6BA7C",
"%X c #E8C384",
"&X c #E7C68B",
"*X c #E8C68B",
"=X c #E7C98E",
"-X c #E9C98D",
";X c #E7CC97",
":X c #E6D19B",
">X c #E9D29D",
",X c #EAD4A3",
"<X c #EADDB0",
"1X c #ECE1B4",
/* pixels */
"7 3 3 3 7 7 9 8 8 8 0 0 0 8 7 7 7 8 8 7 3 3 3 7 7 7 7 7 7 7 7 7 7 3 3 3 7 7 8 8 8 0 0 0 0 8 8 7 7 8 9 3 3 3 3 7 7 7 7 7 7 7 7 H ",
" ./ J P ' ....) / ' X.X. .) P j 0 /  .../ / ) ............/ Y  .X./ P / ) .. ./ / ) ..X. .R P 0 j ) ..' ' ' ' ....X.X.X.' ) ) / ",
"W W W W W W W W W ~ ~ W W W R J 0 R Q )  . .' W W W W W W R Y R W P l P Y W R P l P Y R R P k 0 j l / ) ) ) ) W W W W W W R W P ",
"! ! W R R P R W W W R R R R R J 0 P ! ! ! ! R Y R W W R R R P P k k k P P P P k k P P P k l P 0 j k k l l P P P P k k P P R R P ",
"! W R P P R R R R Y P R R R P j 9 P R R W R P R R ! R R P R R P k l P Y P P l l P Y P l l P P 0 j k l l l P Y P k k l P P P P k ",
"R P Y R R R R P P R R R Y R R J 0 P P P P P R R W R R R R R W R P P P P P P P P P P P P P P k 0 j P Y Y P P P P P P P P l l k k ",
"P P P P J J J J J J J P P P R H 0 J P P P P P P P P P R R P P P k k k k J J k J J k J k k j j 7 0 j k k k k k k J k k k j k J j ",
"J H j j j H j j j j j J k j j 0 9 j j j j j j j j j j P J j j k j j j j j j j j H j j j j j 0 7 7 0 0 0 j j j j j j j j j j k j ",
"_ / k / _ ) / P / ) _ ) / j j j j H j j j j j j j 0 k ) ) P j ) _ P ) _ _ ) / / _ _ _ ) P j j 0 0 0 j H j j j 0 8 j Y ) ) / ) Y ",
"o...) X.%.o...) X.%.%.o.) l k P R P P k k P R P j 0 Y o.o.) / o.%.' X.%.%.o. .X.%.%.%.o.) P J k k k P R P J k j 0 j ' o.o. .o.) ",
"' ) W ' ' ' ) ~ ' ' ' ) W R P R P P R R R R R P j 0 P ) ) / W ' ) Y / ) ) ) / / / ) ) ) Y P P P P P P P P P k j 0 j Y ) ) / / P ",
"R W W R R R R ! W R R R R R R R R R R W W R Y P 0 9 H R R W W R P k P P P P k k l P P P P P P P P l k k P P P j 0 0 J P l k P k ",
"W R R R R W ! R R R R R R R W W W R R R R R R J 0 9 J ! ! R R P k P P P k k k P P P k P P l l k k P P P P P P j 0 0 k k k P P k ",
"! R R W ! ! R R R R R R R ! ! W Y P Y Y Y P Y P 0 0 P ! R R Y Y P P P k k k P P P k l P l k k k P P P Y Y Y P j 0 0 j k P P k k ",
"R P W W ! W P P R R R P R W R R P P R R P P P P j 0 P R P P R R P P k k k k P P k k P P k k k P R P k P R R P j 8 0 j k P k k k ",
"k P R R R P J J J J H J J j j j J P J j J P J H j 0 H P P P P P J k j k k k k j j J J j J P P k j j J J k J k j 0 0 j k k k j 0 ",
"l P P P l j 0 0 0 j x 0 0 0 j j 0 j 0 0 j j j j k k k l P P k j k l l l k j 0 0 0 j j 0 j j j 0 0 j 0 j k j j j k k l l l j j j ",
") '  . .' / P J P / ) Y P Y / / j ) / P / W Y / ' ) ) ' ' ' ) W ) ) ) ) ) R P J Y ) ) Y P Q ' j P / Y W ) Y P / ' ' ) ) ) / P J ",
"! ~ ~ Q W W W W W W W W W W W P j R ! W W W W ! ~ W W R Y Y Y P Y n Y Y W P l k P R Y P P Y Y j l P l P Y P l P Y Y W W W W R P ",
"W W R R Y R ! W R Y R W R R R P 0 P R ! W R R ! ! W R P P P P P k k P P P k k l P P k P P P k 0 j P k k P P k k k k P R R R R P ",
"W R P Y R W W R R R R R P P P J j P P R R R R R W W R R R R R Y l P P P P k l P P P k P Y P P 0 j P P k k P P l l k k P P P P k ",
"Y R R R R W R R R R R R R R P j 0 P R R R R Y Y Y Y Y R W W R P P P P P P P P P P P P P P P P j j k P P P P P P P P P P P P P k ",
"J J P P P P P J J J P P J J P k j P R R / / / / / Y P P P P P l l l J k J J j k k k j j j j J 0 j j j k J J J k j j j J J J P j ",
"0 0 0 0 0 0 9 9 9 9 9 e r c [ [ D ) &.*.&.| %.| | | } _ $.$.) D D ] c 0 8 7 9 9 9 7 7 7 7 9 0 7 7 8 8 7 9 9 9 7 7 7 7 8 0 0 0 j ",
"7 8 8 8 8 7 7 3 3 3 3 y #.O.<.s.i.7.a.a.p.h.j.h.h.h.i.i.a.8.7.i.2.:.] 9 3 7 7 3 3 7 7 7 7 3 7 8 0 0 7 7 3 7 7 7 7 7 7 8 0 8 8 H ",
"8 / W P / ) / / J P I U +.5.b.R.T.f.5.f.G.(.(.(.~.~.R.m.f.f.A.~.S.r.-.m 0 U / J P / / / / J Y ) ) ) P j P / / ) ) ) ) ) ) W k R ",
"8 Q ' W ) ' ' ' W R / O.5.b.K.|.[.M.4.w.H.!._._._.!.K.M.6.r.H.|.].B.w.=.n U / Y Y ) ) ) ) R / ) ' ' Y P R ) ) ) ' ' ) ) ) / P R ",
"7 P W W R R R R W P W :.w.n.Q.[._.M.6.w.Z.Z.Z.L.L.C.J.M.6.w.S.].].C.x.5.D I P k k l P P P P P Y Y Y P P P P P P P P l P P P P R ",
"7 P P P Y R R R P J Q >.e.n._.}.`.M.6.e.H.L.L.L.L.V.Z.M.w.x.S.[.{.J.c.5.] I P Y Y P k k k k P P P P P P k l P R R Y P k k k P R ",
"8 P R R R P P P R J W >.e.B.[.XX[.S.3.w.C.C.V.V.V.V.C.b.6.e.H.XXoXK.c.q.} #.Y Y P P Y Y k k k k k P R Y Y Y P P P P Y Y P k k Y ",
"8 R W W R P P P R P W >.x.B.XX#XXXR.t.b.H.E.E.E.E.E.K.S.b.b.(.$X$X!.c.q.| #.R P J P R R P k k k k Y R R R R P k k k P R R l k P ",
"7 j H H H H j j j j Y <.x.S.#X<X,XXX_.XX=X,X>X:X:X;X;XOX`.|.*X1X>X[.n.r.} y j j j j j j j k j j j j j 0 0 0 0 0 0 0 0 0 j j 0 j ",
"P c 0 0 P R / P k P ) 1.c.J.$X<X,X{.Z.].=X=X%X%X%X%X*XoXI.`.#X1X,X|.V.t.| #./ P P / ) ) / J j 0 j Y / H j j J R R R R / P P P Y ",
"/ / P P / ' ) W R R ) 1.n.^.&X>X=X[.Z._.%X%XoXoXoX@X$XXXJ.W.OX:X>X#XI.u.] #./ Y P / / ) ) P k 0 j Y )  .X.X.' ) ' ' ' ' / Y / W ",
"P 0 8 j P Y Y W ! R / @.N.{.-X%X=X[.C.Q.$X+XQ.W.W.'.+X.XP.P.oX&X$X&X{.y.k I Y l k l Y Y P k k 0 0 k P / / / Y Y Y P P P Y R W ! ",
"H 7 7 8 J P P W ! P P @.k.{.#X$X&X^.v.S.oX{.`.`.`.Q.{.).D.J.XX&X#X#X^.9.j I P k k P P P k l k 9 0 k k k k k P P l c c k P R W ! ",
"j j j j P R R R R P x m i.z.T./. Xl.0.d.Y.T.R.l.F.F.Y.U.d.d.Y. X/.G.g.O.q j P P P P P P P P P 0 j J P P P P P P k l P P P P P P ",
"J P R R R R R R R P x q v F +.;.O.z 1 1 n +.9.] ,.,.m g 1 1 m ;.;.G A a 7 j P P P P P P P P k 0 j J P P P P P P P P P P k P P P ",
"J P P J J J P J J j w t ; a h h a - + + : Q 1.[ =.@.q - + + = h v s 1 @ * 0 j J J J k j j j j 7 0 j j j j j J k k k k j j k k k ",
"9 9 9 9 9 9 9 9 9 7 5 # @ * * * & + + + # J 9.2.0.@.6 + + + X = = * - + O 3 7 9 9 9 7 8 8 8 7 3 3 7 7 7 8 0 0 8 8 8 8 8 7 7 8 j ",
"9 7 3 7 9 9 7 7 7 7 6 ; : , > a < & X X = j @.,.,.{ 7 * X X = a a < , & # 3 7 7 9 9 9 0 8 7 7 2 2 3 3 7 7 7 7 7 % % 8 0 7 7 0 j ",
"/ P J R / / P J R U e 5 1 a f Z b = & = h v h h h h s < * = a A f d < : 5 P P P / / / / l j j 0 9 0 j j j j j 0 8 0 P / / P / l ",
") / W ~ ) ) W ! ~ / e ; 1 a Z N B 1 & < A A f f f u f < = 1 d C B f p * 5 P Y / / / / / P P P J k J J l P P P j 0 j Y / / Y Y l ",
"W W R R R R W ! W P e : = a Z S A 1 & , B V N S M M A a * 1 v C V f > * = j k k P P P P P P P P k l l P P P P j 0 0 k l k P P k ",
"W R P R W ! ! R Y P e 5 * > Z S S 1 X = b V N M M N A a * = s C S f > X * j k P P P k P P k k k k P R P l P P H 0 0 j k k P P k ",
"W R R W ! ! R Y R R H 3 O , d S A = + O v S M M M M i < X X < S A s * . * j P P P k P P k k k P P j H P P P P j 0 0 j k P P k k ",
"R R W ! ! W R R R R P j 3 & 1 a < O + # 1 g a a a a a : + + * a < & .   7 k P P k P P P P P P P H 8 j P R R P j 8 0 j k P k k k ",
"j j j j j j 0 0 0 0 0 0 7 * O O o o o * 3 3 3 3 = * = 3 * O O O O .   $ 8 0 0 0 0 0 0 0 0 0 0 0 7 2 7 0 0 j 0 8 7 8 0 j j 0 0 j ",
" ....... ./ j j j / ) / j k c 0 7 0 0 j / / k Y Y j j j Y P j 8 j j c ) ) / J H R ) ) P J ) ' j P / P / ) W P Y l j j j ) / P k ",
" . .' ' ' W Y P R ) ) W R R / P j W Q R / W R W ) X.o.X.) ) ' R / / / ) ) Y P P Y ) ' Y P ) ' j l / Y W ) Y P ) X.o.o.o. .W P k ",
"! ! ! W Y R ! ! W R R R ! R R J 0 P ! ! R P j j l ) ) ' W R ! R k k k P P l k k P P P k k P P 0 j k k k P k j j / '  .) Y k k c ",
"! W R R Y W ! W R R R W R R R P 0 P R W W P j 8 0 j j J W ! ! R k l P P P k k P P P k k P k k 0 j P k k P k 0 7 0 j J k k k k k ",
"R R R R R W R R R R R P P j j j 0 P R R W R J j 0 0 j J R ! R R P P P P P k P P P P J J k j J 0 j J P k P P k j 0 j j k k k P k ",
"R R R R R R R R R P j 0 0 j j j j R R R Y R Y P J J J P Y R R Y P P P P P P P P P J j 0 0 j H j j k P P P P P J k j k P P P P k ",
"J J J J J J J J J j 9 3 7 j j j 0 P P P J J J J P P P J P J J J J J J J J k j j j 0 7 2 7 j k 0 j j j j k J J j j j j k J J J k ",
"8 0 0 0 0 0 0 0 9 9 3 2 7 9 7 0 8 j j 0 0 0 9 0 0 0 0 0 j j j 0 j j j 0 0 7 9 9 9 7 2 2 7 0 0 8 8 0 8 7 7 0 0 0 9 9 9 8 0 0 0 j ",
"7 j j 0 j 0 0 0 9 0 0 0 0 0 7 j j j j 8 7 0 0 0 0 0 0 j j j j 8 0 j 0 j j 0 0 9 9 0 0 0 0 9 0 j j j 0 9 9 0 0 0 0 0 0 j j j 0 J ",
"8 W W P / / / R P P / / / P J / / / Y k J R / / / / / / ) ) / j j Y l Y / / / J P R / / / J Y ) ) ) P H J / / / / / / / / Y k ! ",
"8 W ~ W W W ! ! W W W W W Y P W / / W R P Y W W / / / / W W R j j l l P Y Y Y l P Y W / / R R W / / P P R R W / / / R / / Y P W ",
"8 P W W W R Y R W W W R R R R P P P P P P R R W W W W W R R R j j k k l P P P P l l P P P P P Y R Y P P P P P P P l c P P P P W ",
"8 P P P Y R R Y Y Y R W W ! ! R R R R R R W R P k P Y W W R R j j k Y Y P P P P Y P P k k k P P P P P P l l P P P P P l l k P R ",
"8 P R R R P P P R R P P R ! ! ! W R P P P P P j 0 j J P P R R H j k P P P P R P P P P P l k k k k P R R R P P j j j P P P k k Y ",
"8 R ! ! R R P P R R R P Y Y Y Y Y R P P J j 0 7 3 7 0 j P P P j j j k k k P P P P P P P P P P P P P P P J j 0 7 3 7 0 J P P k j ",
"7 e r r r r e e e e e e e e e e e e e e e 7 4 4 4 4 4 9 e e e w 7 w e e e e e e e e e e e e e e e e e e 9 4 4 4 4 4 4 w e e e 0 "
};
