/* XPM */
static char *_a74279fc1c24b15dc97c9b9da5776680NSISie9w95eYhmg[] = {
/* columns rows colors chars-per-pixel */
"64 64 62 1 ",
"  c black",
". c #1C141E",
"X c #1F1720",
"o c #231B27",
"O c #241B27",
"+ c #251D28",
"@ c #2B212A",
"# c #2B222D",
"$ c #2F2533",
"% c #2F2831",
"& c #312732",
"* c #302736",
"= c #322833",
"- c #332934",
"; c #342A34",
": c #352C36",
"> c #372E38",
", c #382F39",
"< c #382E3D",
"1 c #39313A",
"2 c #3B333C",
"3 c #3B343C",
"4 c #3D353E",
"5 c #40373F",
"6 c #41383F",
"7 c #332E41",
"8 c #3F3740",
"9 c #3F3840",
"0 c #403741",
"q c #403841",
"w c #443B41",
"e c #443C42",
"r c #433B44",
"t c #433C44",
"y c #453D44",
"u c #473F48",
"i c #4B4146",
"p c #4D4347",
"a c #474048",
"s c #484049",
"d c #4D4348",
"f c #4D454B",
"g c #4B434C",
"h c #4B444C",
"j c #4D454D",
"k c #504649",
"l c #50474D",
"z c #54484B",
"x c #52494E",
"c c #544B4F",
"v c #564C4F",
"b c #44405A",
"n c #45415C",
"m c #574D50",
"M c #594E51",
"N c #5B5051",
"B c #5E5252",
"V c #726B7F",
"C c #81727D",
"Z c #83747F",
"A c #AE9695",
"S c #B19998",
/* pixels */
"................................................................",
"...%%%%%%%%%%%%%%%%%%%%%%%%%%%%%%%%%%%%%%%%%%%%%%%%%%%%%%%%%#...",
"...hhhhhhhhhhhhhhhhhhhhhhhhhhhhhhhhhhhhhhhhhhhhhhhhhhhhhhhhh8...",
"...hhhjBxhhhhhhhhhhhhhBBhhhhhhhhhhhhhhhjBmhhhhhhhhhhhhhBBhhh8...",
"...hs11h1&&&&&&&&&&&hh11hh;&&&&&&&&&&1ha1qh&&&&&&&&&&&&hs11h8...",
"...hgssh1&:aaaaaaa4&hhsshh;&aaaaaaaq&1hsssh&&4aaaaaaa:&hhssh8...",
"...hhhhh4:1hhhhhhhq:hhhhhh>:hhhhhhhy:2hhhhh::qhhhhhhh1:hhhhh8...",
"...hhhhhq14hhhhhhhr1hhhhhh21hhhhhhhy14hhhhh11rhhhhhhh41hhhhh8...",
"...hhhhhq14hhhhhhhr1hhhhhh21hhhhhhhu14hhhhh11rhhhhhhh41hhhhh8...",
"...hhhhhq14hhhhhhhr1hhhhhh21hhhhhhhy14hhhhh11rhhhhhhh41hhhhh8...",
"...hhhhhq14hhhhhhhr1hhhhhh21hhhhhhhy14hhhhh11rhhhhhhh41hhhhh8...",
"...hhhhhq14hhhhhhhr1hhhhhh21hhhhhhhy14hhhhh11rhhhhhhh41hhhhh8...",
"...hhhhhq14hhhhhhhr1hhhhhh21hhhhhhhy14hhhhh11rhhhhhhh41hhhhh8...",
"...hhhhhq15MMMMMMMi1hhhhhh21MMMMMMMk14hhhhh11iMMMMMMM51hhhhh8...",
"...hhhhhq16BBBBBBBp1hhhhhh21BBBBBBBz14hhhhh11pBBBBBBB61hhhhh8...",
"...hhhhhq16BBBBBBBp1hhhhhh21BBBBBBBz14hhhhh11pBBBBBBB61hhhhh8...",
"...hhhhhhhhhhhhhhhhhhhhhhhhhhhhhhhhhhhhhhhhhhhhhhhhhhhhhhhhh8...",
"...hhhjBxhhhhhhhhhhhhhBBhhhhhhhhhhhhhhhjBmhhhhhhhhhhhhhBBhhh8...",
"...hs49xq,,,,,,,,,,,hhewhh1,,,,,,,,,,4hswyh,,,,,,,,,,,,xj44h8...",
"...hs11h1&&&&&&&&&&&hh11hh;&&&&&&&&&&1ha1qh&&&&&&&&&&&&hs11h8...",
"...hhhhh1&:hhhhhhh8&hhhhhh;&11hhhs1,&1hhhhh&&8hhhhhhh:&hhhhh8...",
"...hhhhhq14hhhhhhhr1hhhhhh21hhhhhhhy14hhhhh11rhhhhhhh41hhhhh8...",
"...hhhhhq14hhhhhhhr1hhhhhh21hhhhhhhy14hhhhh11rhhhhhhh41hhhhh8...",
"...hhhhhq14hhhhhhhr1hhhhhh21hhhhhhhy14hhhhh11rhhhhhhh41hhhhh8...",
"...hhhhhq14hhhhhhhr1hhhhhh21hhhhhhhy14hhhhh11rhhhhhhh41hhhhh8...",
"...hhhhhq14hhhhhhhr1hhhhhh21hhhhhhhy14hhhhh11rhhhhhhh41hhhhh8...",
"...hhhhhq14hhhhhhhr1hhhhhh21hhhhhhhy14hhhhh11rhhhhhhh41hhhhh8...",
"...hhhhhq14jjjjjjjy1hhhhhh21jjjjjjji14hhhhh11yjjjjjjj41hhhhh8...",
"...hhhhhq16BBBBBBBp1hhhhhh21BBBBBBBz14hhhhh11pBBBBBBB61hhhhh8...",
"...hhhhhq16BBBBBBBp1hhhhhh21BBBBBBBz14hhhhh11pBBBBBBB61hhhhh8...",
"...hhhhhhhhhhhhhhhhhhhhhhhhhhhhhhhhhhhhhhhhhhhhhhhhhhhhhhhhh8...",
"...hhhhhhhhhhhhhhhhhhhhhhhhhhhhhhhhhhhhhhhhhhhhhhhhhhhhhhhhh8...",
"...hhhjBxhhhhhhhhhhhhhBBhhhhhhhhhhhhhhhjBmhhhhhhhhhhhhhBBhhh8...",
"...hs11h1&&&&&&&&&&&hh11hh;&&&&&&&&&&1ha1qh&&&&&&&&&&&&hs11h8...",
"...hsyuh1&=>qyyy1>;&hhuyhh;&>,yyyq>:&1hsysh&&;>yyyy>>=&hs--h8...",
"...hhhhh2=;3ahhh43>=hhhhhh;=34hhhs31=1hhhhh==>3hhhh33;=yt<<y1...",
"...hhhhhq14hhhhhhhr1hhhhhh21hhhhhhhy14hhhhh11rhhhhhhh41.+VV.....",
"...hhhhhq14hhhhhhhr1hhhhhh21hhhhhhhy14hhhhh11rhhhhhhh41.........",
"...hhhhhq14hhhhhhhr1hhhhhh21hhhhhhhy14hhhhh11rhhhhhhh41$*bb$#...",
"...hhhhhq14hhhhhhhr1hhhhhh21hhhhhhhy14hhhhh11rhhhhhhh41O$CZOo...",
"...hhhhhq14hhhhhhhr1hhhhhh21hhhhhhhy14hhhhh11rhhhhhhh41.@AS.....",
"...hhhhhq14hhhhhhhr1hhhhhh21hhhhhhhy14hhhhh11rhhhhhhh41.@AS.....",
"...hhhhhq16BBBBBBBp1hhhhhh21BBBBBBBz14hhhhh11pBBBBBBB61$>VV$#...",
"...hhhhhq16BBBBBBBp1hhhhhh21BBBBBBBz14hhhhh11pBBBBBBB61$>VV$#...",
"...hhhhhq16BBBBBBBp1hhhhhh21BBBBBBBz14hhhhh11pBBBBBBB61$>VV$#...",
"...hhhhhhhhhhhhhhhhhhhhhhhhhhhhhhhhhhhhhhhhhhhhhhhhhhhh$-nn$#...",
"...hhhjNxhhhhhhhhhhhhhMNhhhhhhhhhhhhhhhjNchhhhhhhhhhhhhXonnXX...",
"...hstyvy88888888888hhdphhq8888888888rhfpfh088888888888.X77.....",
"...hs12h1&&=======&&hh31hh;&=======&&1ha1qh&&&=======&&XXXXXX...",
"...hhhhh1&-1ahhh21:&hhhhhh;&11hhhs1,&1hhhhh&&:1hhhh11-&hhhhh8...",
"...hhhhhq14hhhhhhhr1hhhhhh21hhhhhhhy14hhhhh11rhhhhhhh41hhhhh8...",
"...hhhhhq14hhhhhhhr1hhhhhh21hhhhhhhy14hhhhh11rhhhhhhh41hhhhh8...",
"...hhhhhq14hhhhhhhr1hhhhhh21hhhhhhhy14hhhhh11rhhhhhhh41hhhhh8...",
"...hhhhhq14hhhhhhhr1hhhhhh21hhhhhhhy14hhhhh11rhhhhhhh41hhhhh8...",
"...hhhhhq14hhhhhhhr1hhhhhh21hhhhhhhy14hhhhh11rhhhhhhh41hhhhh8...",
"...hhhhhq14hhhhhhhr1hhhhhh21hhhhhhhy14hhhhh11rhhhhhhh41hhhhh8...",
"...hhhhhq14hhhhhhhr1hhhhhh21hhhhhhhy14hhhhh11rhhhhhhh41hhhhh8...",
"...hhhhhq16BBBBBBBp1hhhhhh21BBBBBBBz14hhhhh11pBBBBBBB61hhhhh8...",
"...hhhhhq16BBBBBBBp1hhhhhh21BBBBBBBz14hhhhh11pBBBBBBB61hhhhh8...",
"...hhhjMfuslllllllfuhhMMhhaullllllljushjMxhauflllllllsuMMhhh8...",
"...hsyymjhhhhhhhhhhhhhkkhhhhhhhhhhhhhhhfkfhhhhhhhhhhhhhmcyyh8...",
"...hs11hhhhhhhhhhhhhhh11hhhhhhhhhhhhhhha1qhhhhhhhhhhhhhhs11h8...",
"...&&&&&&&&&&&&&&&&&&&&&&&&&&&&&&&&&&&&&&&&&&&&&&&&&&&&&&&&&#...",
"                                                                "
};
