/* XPM */
static char *_2320b7b2fb44279d68e45d371c4cbebiOijkqBOluDEQSKk[] = {
/* columns rows colors chars-per-pixel */
"64 64 217 2 ",
"   c #040100",
".  c #0C0301",
"X  c #0D0901",
"o  c #0E0C09",
"O  c #140301",
"+  c #1C0301",
"@  c #140A03",
"#  c #1C0B05",
"$  c #160D09",
"%  c #1C0D0B",
"&  c #171103",
"*  c #1B1404",
"=  c #18120E",
"-  c #191513",
";  c #240301",
":  c #2B0300",
">  c #230B06",
",  c #2B0B05",
"<  c #240E0A",
"1  c #290F09",
"2  c #340300",
"3  c #3B0401",
"4  c #330903",
"5  c #3B0C04",
"6  c #350F09",
"7  c #231305",
"8  c #251C06",
"9  c #291C07",
"0  c #25110B",
"q  c #2C130C",
"w  c #361904",
"e  c #33150D",
"r  c #39150D",
"t  c #36190E",
"y  c #3B190F",
"u  c #241412",
"i  c #2C1513",
"p  c #231B16",
"a  c #2C1916",
"s  c #291D1A",
"d  c #341612",
"f  c #3A1612",
"g  c #351914",
"h  c #3C1A13",
"j  c #371D18",
"k  c #3A1E18",
"l  c #2B2207",
"z  c #2D2209",
"x  c #342409",
"c  c #3C270B",
"v  c #352A0B",
"b  c #3B2C0B",
"n  c #3E310C",
"m  c #27221E",
"M  c #3B2E17",
"N  c #35231D",
"B  c #3E2018",
"V  c #2E2523",
"C  c #362B26",
"Z  c #353229",
"A  c #3B3534",
"S  c #3A3736",
"D  c #440400",
"F  c #4B0500",
"G  c #440901",
"H  c #4E0A01",
"J  c #530500",
"K  c #5C0400",
"L  c #550901",
"P  c #5B0900",
"I  c #451A09",
"U  c #581402",
"Y  c #581404",
"T  c #441611",
"R  c #441C13",
"E  c #4A1E16",
"W  c #4B1E18",
"Q  c #650500",
"!  c #6C0500",
"~  c #640B01",
"^  c #6C0C01",
"/  c #730400",
"(  c #7B0300",
")  c #720B00",
"_  c #7B0A00",
"`  c #6A1602",
"'  c #7D1201",
"]  c #771803",
"[  c #472B0C",
"{  c #522A07",
"}  c #45350E",
"|  c #58370F",
" . c #462014",
".. c #4D2115",
"X. c #4E2215",
"o. c #4C2016",
"O. c #4F2216",
"+. c #452A13",
"@. c #4E2119",
"#. c #512316",
"$. c #512415",
"%. c #552517",
"&. c #582717",
"*. c #552816",
"=. c #592817",
"-. c #542419",
";. c #5A261A",
":. c #5D271B",
">. c #5C291A",
",. c #493811",
"<. c #682505",
"1. c #772807",
"2. c #61271C",
"3. c #612A1B",
"4. c #632A1C",
"5. c #692C1E",
"6. c #472E2B",
"7. c #453C38",
"8. c #6D2E20",
"9. c #5B4C00",
"0. c #544112",
"q. c #5D4717",
"w. c #6A4800",
"e. c #764508",
"r. c #634A18",
"t. c #6C5418",
"y. c #77591B",
"u. c #49423C",
"i. c #66522A",
"p. c #735D31",
"a. c #7B6222",
"s. c #554944",
"d. c #544B47",
"f. c #5B5755",
"g. c #63544E",
"h. c #685953",
"j. c #7E6842",
"k. c #69615B",
"l. c #72625C",
"z. c #6A6664",
"x. c #776B66",
"c. c #7F716B",
"v. c #7A7775",
"b. c #830500",
"n. c #8B0400",
"m. c #830B01",
"M. c #8B0B01",
"N. c #930300",
"B. c #9B0300",
"V. c #930C01",
"C. c #9C0A00",
"Z. c #841402",
"A. c #8B1302",
"S. c #861A02",
"D. c #941302",
"F. c #9C1602",
"G. c #941B03",
"H. c #9B1C03",
"J. c #A20200",
"K. c #AA0300",
"L. c #A30E01",
"P. c #AB0C01",
"I. c #B10C00",
"U. c #A31602",
"Y. c #AA1703",
"T. c #AB1A02",
"R. c #B41302",
"E. c #BD1502",
"W. c #BA1C03",
"Q. c #842609",
"!. c #9D2103",
"~. c #AB2203",
"^. c #B42104",
"/. c #C31B03",
"(. c #C92604",
"). c #D12705",
"_. c #D42C05",
"`. c #896821",
"'. c #937632",
"]. c #856E4E",
"[. c #89776E",
"{. c #857D77",
"}. c #A3812E",
"|. c #99814E",
" X c #B59144",
".X c #A8905E",
"XX c #BB9958",
"oX c #8D837D",
"OX c #93847E",
"+X c #A58E75",
"@X c #C09C4D",
"#X c #CAA65A",
"$X c #C2A579",
"%X c #8E8883",
"&X c #948C88",
"*X c #9C948E",
"=X c #999795",
"-X c #A29082",
";X c #A79C96",
":X c #ACA29E",
">X c #A9A6A4",
",X c #B7ADA8",
"<X c #BFB0A4",
"1X c #BDB2AD",
"2X c #BFB5B2",
"3X c #D5BD8E",
"4X c #C6B6A6",
"5X c #C3BAB5",
"6X c #D8C5A0",
"7X c #C9C3BF",
"8X c #CECAC7",
"9X c #D2CBC7",
"0X c #D5D1CE",
"qX c #DAD5D2",
"wX c #E2DEDB",
"eX c #E6E1DF",
"rX c #E9E7E4",
/* pixels */
"O.g d g g g g g g g i i i g f d d d f f h h f f f f g g i i i g g d d g g g g g g i i i g d f d d d f f h h f f f f g g i i i g ",
"O.:.&.:.3.4.4.4.3.3.:.>.:.4.:.O.h E O.:.4.4.3.&.%.:.4.:.&.O.O.3.4.-.-.:.4.4.4.4.4.:.-.-.:.4.:.T T E -.:.4.4.3.&.-.3.4.3.-.E -.:.",
"O.$.$.$.%.%.%.%.%.%.:.:.:.-.O.R f R O.#.$.#.#.O.O.#.%.#.O.W W #.%.#.$.%.%.%.%.%.%.&.3.3.>.&.*.R  .$.%.%.%.%.=.*.%.%.%.*.*.%.%.%.",
"E $.$.O.O.W E W O.O.O.O.W W E R g R O.E E O.E R R E O.O.E E E E O.O.O.#.$.$.O.O.O.O.$.%.*.*.%.h R $.$.$.$.$.$.%.%.$.O.$.$.$.%.*.",
"E O.O.O.O.O.W E O.O.O.O.W W E E g O.O.O.E R t q q q q e t R E E O.$.$.O.O.R t e e e r R O.$.$.f R O.$.$.$.$.O.$.%.%.$.$.O.$.$.%.",
"E E O.E O.O.O.O.O.O.O.O.#.#.O.R d R O.O.O.h 0 @ O O + ; # q t f O.$.$.$.O.y < @ ; 2 3 6 r y R f R $.$.#.$.$.$.#.O.$.$.$.$.$.O.$.",
"R E E R R E E O.O.O.E E E E R R d R R E E R t # O + 2 3 : ; > > t R O.$.O.R e > 2 K ! J 4 , t t R O.$.O.O.O.O.O.O.O.O.O.O.O.O.O.",
"R E R R R R T T T R R T T h h f d f T T R R R d < ; 2 D F D : + > e h  .O.O.h e 4 K ( ( Q F 4 1 g R R E O.O.R R R R R  .R R R  .",
"O.&.-.-.:.;.R f h T R R  .R h h h h R O.&.:.:.-.R q , 2 F F F 3 2 , t -.&.#.T t e 5 P b.V.m.K 3 e r T W &.:.:.-.@.@.&.:.:.@.@.:.",
"#.4.3.4.5.4.O.h h R E O.$.O.E E R E O.%.4.8.8.8.4.E e , : 2 F P P 4 1 R :.&.T h R T 5 P b.C.C.) G r h #.4.5.8.5.:.:.5.8.5.&.:.5.",
"W -.-.-.&.-.E h T E O.O.O.O.O.O.O.O.O.O.&.&.&.-.-.O.R 1 O ; F ~ ^ D ; > y O.T h O.O.T 5 J N.R.Y._ D e E %.&.:.:.>.%.>.:.:.=.%.&.",
"W O.W W O.O.R f R O.O.O.O.E O.O.O.O.O.O.O.O.O.O.E E R 0 . + 3 J ~ P 3 ; > e d g  .O.R 0 3 b.I.E.R._ F e R O.$.$.*.%.$.$.$.%.%.$.",
"W O.O.W E E R f R O.O.O.O.O.O.E E W W O.O.E O.O.O.R t # . O ; 3 ~ J 2 + O # 0 d R #.R 0 2 ( C.L.R.C.! 4 r R O.$.$.*.*.%.$.$.$.*.",
"E W O.O.E E R f R O.O.O.#.O.O.O.O.E E E O.O.E E R t 7 @ X X + : F 2 O X @ & 7 q T O.R 1 3 ( n.M.C.J.n.P , e O.$.$.$.*.*.%.$.$.$.",
"E E E O.O.E T f T E $.$.$.O.E $.O.E E E E O.O.R t > * l v 8 @ O + O X * v 0.0.x t R T < 3 ( b.) b.N.B.( 3 q O.$.O.O.$.*.*.*.#.$.",
"h R R E O.R T f h R O.E E O.R R R O.O.O.R R O.R q X X * 9 * @ @ . * x } t.y.0.8 $ q t < 3 ( b.) ) b.N.N.Q 3 e R O.O.O.O.$.$.O.O.",
"O.T R E W W E E E T T E R h R R h R R R h R R d % . . ; 4 : # # 4 [ q.y.`.t.} * X @ 1 > 3 ( _ ~ ! ) n.B.n.F # q f f R E O.O.O.W ",
"O.O.#.&.&.:.:.:.&.O.O.&.&.O.-.-.T -.>.#.O.%.O.0 O O : P m.^ G : _ 1.y.`.t.0.0.b * @ q 1 3 _ ! J ~ ) b.B.N.K , r R O.%.:.:.3.3.:.",
"O.$.%.%.%.%.$.#.O.W O.#.#.O.O.O.T O.#.W E T 0 @ + D ) U.(.^.Z.~ L.U.Q.| b 0.`.t.b * q 1 D _ Q F ~ ) _ n.N.b.K 5 R $.%.%.%.=.=.*.",
"E $.$.$.$.#.O.E E E O.O.E E O.O.h R O.E h 6 , : D _ Y.(._.(.Y.M.V.M.~ , 7 b r.t.n $ # 4 P m.Q F ~ ^ ) _ N.B./ 3 t O.%.$.$.$.%.%.",
"E O.O.O.O.O.O.W W O.O.O.E O.O.R h O.O.O.e , G P ) Y.(.).)./.R.V._ P 3 ; @ & v n 8 X O D _ V.Q F ~ ^ ) ) n.B.b.D e R O.$.#.O.$.$.",
"E O.O.O.O.O.O.O.O.O.O.O.O.O.E R h O.O.R q : L m.U.(._.)./.E.L.m.! D : ; # 8 v 8 X   + K C.N.K D ~ ^ ) ) _ n.n.Q 4 q R $.$.$.$.#.",
"R O.O.O.O.E R R R O.O.O.E E R T f R E T 1 : P m.U.W.(.(.W.R.V.) P 2 + + c ,.v &   . 3 _ V./ F D ~ ^ ^ ) ) n.N.( 3 > f O.O.O.O.O.",
"R h h h f d d d d g g g d f f f d f g i % ; L _ V.F.H.G.S.Z.M.m.! 2 . @ } } 8 X   + K V.M.J 2 3 J ~ ^ ) ) m.N.b.D # q f h h h h ",
"O.f f f f d g g g g g d d d f f f d d i < > F ) _ ` <.{ 5 P m.L.m.3 X & 9 7 X   O 3 _ C.m.F 2 2 3 P ^ ) ) ) b.( D # q d f f f d ",
"$.O.#.;.&.&.&.&.&.&.-.@.R E -.:.&.-.O.-.E r 4 D J U w.9.w ` F.L.Q :   X ; ; . O 3 / N.M.! 3 : : 2 L ^ ) ) ) _ ( D < R -.W #.&.R ",
"%.O.-.&.&.&.>.>.>.&.&.-.#.O.&.:.:.&.%.-.#.y > 3 ~ ` w.w.1.S.D._ 2 O     + + O 2 Q n.n.! D ; + + 2 J ^ ^ ) ) _ b.D 1 E &.%.&.:.R ",
"%.O.O.O.O.O.O.O.O.O.O.O.O.O.#.#.#.O.O.O.O.t > F A.F.S.] G.Z.^ J O O O   . + 3 Q b.n.( F : # # + ; D ~ ^ ^ ) m.M.F < R $.%.%.$.h ",
"*.O.E E E W O.#.$.#.O.W E O.O.O.O.O.E E E t > G Z.W.Y.D.' ^ H : O 3 D + O 3 b.C.V._ P 2 > t R e + : D ~ ^ ) m.M.H < R O.O.O.#.h ",
"$.W E O.#.#.O.@.O.O.#.#.#.$.#.E E E E E O.R t 4 H ' A._ ~ F 2 + D ! b.) F K C.J.M.! D ; # t O. .e > ; D ~ ) Z.G.L < h O.$.$.$.T ",
"O.E E O.$.#.W E E W #.$.$.$.$.O.E E E O.O.R q # ; D F D 3 2 ; : / C.I.W.G.' m.b._ P 2 + + 1 h $. .# . : L ^ A.!.U < h O.%.%.$.T ",
"T h R R R h h h h h h h h h T R R R O.R h 1 O . + ; + O + : 2 F N.I./._._.H.P J P F : ; + @ 0 T f # . O D ^ A.!.U < t  . . . .d ",
"$.-.@.@.-.#.#.#.#.@.R h R @.-.R h R E E t @ . : D 2 : 3 P ~ ~ ) B.I./._._.~.~ : O ; D 3 ; @ e f f e < O : J Z.!.U 1 R @.R f R @.",
"*.-.#.-.>.:.:.>.&.>.4.4.4.:.-.R f R T f N V % 3 P L J ! b.n._ ) b.C.I././.U.^ : . + D L 3 + t T R R e O ; H Z.!.U 1 R -.$.O.O.-.",
"*.%.$.#.O.O.O.#.#.#.-.-.-.#.W R d f d C s.g.N D ! ) _ n.J.J.N.m.) ( b.C.P.L._ 3 . O 3 P F ; t h  .O.y > ; F Z.!.U 1 h O.R h f E ",
"*.%.$.O.W E E W O.O.E W E W E R d q s g.OXv.6.J b.m.n.J.K.K.K.B._ J D ! N.P.C.K ; O : D 3 ; e f  .O.O.y > 3 Z.!.U 1 h O.h d d R ",
"$.O.O.O.O.O.O.E O.O.O.O.O.O.O.R g q Z %X;Xk.N J _ _ V.P.I.E.E.I.C.K 2 D b.I.P._ 3 O + ; O O q f R O.O.R > 3 ' H.U 1 R O.E R T R ",
"O.O.O.W O.O.O.O.O.O.O.O.O.O.O.R g q A =X*Xu.0 4 F K _ V.C.R././.P.Q : : ) I.R.V.P ; O .   X q f R $.$.R > : ~ A.H < R O.$.$.O.O.",
"E E E R R R E E E O.E E R R R h d q A =X%XZ & @ : J _ M.M.V.U.T.M.J ; O P C.I.P.) 4 # X   X q f R O.O.h # O F _ F > t O.O.O.O.O.",
"R h f d f f f f f h h f d d d i u < A =XoXC & @ : Q n.C.C.V.A.Z.P 3 + . 3 _ P.L.) I x * . . % i d f h e @ . 2 ! D # q g g g g g ",
"E h f d h f d e d d d d d i i u u % A =X{.C & X + D ! D.R.T.D.m.J : . . 3 _ V.Z.<.{ x > O . $ u i d d e 1 @ : Q D # u g g d d d ",
"W -.O.-.-.-.R f f T R R R R R f f q A &Xv.m @ X . ; P D.T.S.~ L 3 +   . J n.V.` { x * + + O < d h R R E R 0 : K 3 > R #.-.O.O.-.",
"W -.#.-.%.%.E f T E O.O.O.O.O.E R q V z.f.- X X X + P m._ 5 t +.# . . ; ) C.M.Y x 7 # + O O q E O.O.#.$.O.q ; D : < R %.=.%.%.&.",
"E O.O.E W E R f h O.O.O.O.E R T h 0 = A A m o X X O D Y T < 0.'.} * + P F.U.) 5 q e q # . X e $.$.$.$.$.O.q + + + 0 R $.$.$.%.%.",
"E O.O.O.E E R g R O.O.E E O.h a i u p 7.z.k.Z - = = i 6.s.C p.@Xa.x : _ T.H.H ; < g q = o X q $.*.*.%.$.O.R 0 @ > t O.$.$.O.$.%.",
"W E O.O.E E R f T O.O.R t q N 7.s.f.z.%X,X,Xv.f.f.f.f.x.oXk.].XX}.,.; ~ F.Z.2 . @ i C s.u.p q E $.*.*.%.$.O.t # q O.$.*.*.$.$.$.",
"E E E O.O.E R f h E R e $ m f.*X1X7X8XqXwXwX0X8X8X8X5X2X,X;X-X+XXXp.9 : ! ! + X $ Z x.>X&XA 0 T O.$.$.%.$.O.R 0 t O.$.%.*.*.$.$.",
"R h h h T h f d f f q # = f.*X5X0XwXrXrXrXrXwXwXrXeXwXqX7X5X1X<X6X.Xr.w ^ ~ + @ N h.:X0X>XA % i f f h h h h d e g h T R R R R T ",
"E E -.&.O.R T E #.E h t j s.z.v.;X1X8XqXqX9X5X4X5X1X5X5X,X,X1X4X3X|.q.| Q.! + @ s s.*X8X>X7.g R @.&.-.R E -.-.E T R -.:.4.4.4.2.",
"E W #.:.4.5.5.4.:.#.O.-.O.e 0 u 7.h.{.;X2X:Xc.l.l.h.l.[.[.[.+X$X Xq.l r.1.H O O # a s.{.v.Z f R E -.%.$.$.-.&.%.O.O.%.:.:.3.3.3.",
"W W E O.&.3.3.&.E T R O.E T h f u p Z h.oX{.7.- - u s u.l.u.j.#X'.} @ 9 7 + # q e q a V m 0 t h R O.$.%.$.$.#.$.*.*.$.#.$.*.*.*.",
"W E E E E O. .R f f E O.E E O.R q q d N A Z -   . + , h C p i. Xr.9 @ + @ @ < e t r t t t t R h E O.$.$.%.%.$.$.$.*.*.$.$.$.%.*.",
"E O.W E E R R R R R O.O.E O.O.R f R h q $ .       O ; ; + X M i.z 4 D F 3 : < e h R O.$.$.$.$.T R R E O.O.O.$.$.$.$.%.%.$.$.$.$.",
"E O.O.O.O.O.E R E O.O.O.O.O.E R h E R f < O X O O O . O + O X @ O F ( b.Q 2 + e R O.$.$.$.$.$.R R R R T h R O.$.$.$.$.$.$.$.$.$.",
"E O.O.O.O.R R R R E O.E R R R R f R R f 0 < q e e q @ . O + O   + 3 K ! F ; # t  .O.O.O.O.O.O.R T R R f i d R O.O.O.O.O.O.O.O.O.",
"E T h h h d g g g h h g d f h f f f h d u u i i d q @ . + ; O . : F P P 2 + < d g g g f h T T f h f g d i i d g g h j h h f h f ",
"#.h T R R h h h h h h h g f R R R T f h h h h q % $ @ O O O . O J ! / J ; # d h h h h g d h R R R h g h h h h g g h h R h T R f ",
"=.O.O.-.-.-.-.-.-.-.-.@.E E %.&.&.-.O.-.-.O.h 0 7 8 8 * 7 @ @ w ] V._ 3 > q E -.-.-.-.O.E O.-.-.-.O.O.#.-.-.-.O.O.-.-.-.O.$.&.T ",
"*.O.#.%.%.$.-.-.-.-.-.$.O.O.#.#.-.$.$.%.$.R 0 * z n z z n * l 0.e.Q./ ; 1 R $.%.-.-.%.#.$.%.%.-.-.#.O.#.%.%.%.%.%.=.-.-.%.*.=.T ",
"*.#.O.O.O.E E O.O.O.O.O.O.O.#.$.#.#.O.O.E t @ X * 8 * * 8 @ * v b I 2 O e O.%.%.%.%.$.$.O.O.O.O.O.#.$.$.$.%.%.%.$.#.#.%.%.%.$.h ",
"%.O.E E E O.O.O.O.O.O.W O.O.O.O.O.O.E E E h 0 # > 7 # # 7 # > # 7 7 < < y O.O.E O.#.%.%.$.$.$.$.$.%.*.*.%.%.$.O.#.$.$.$.O.O.O.h ",
"%.W E O.O.O.O.R R O.O.$.$.$.O.E E E E E O.O.R h h R R h h h h t t R R T R O.R f h O.O.O.O.O.$.%.*.*.*.$.$.O.O.$.$.O.O.#.$.$.$.h ",
"R E O.O.O.R f d i d h R O.O.O.O.O.O.O.O.O.O.O.O.O.O.O.O.E E E T R O.O.O.E h d i i g h R O.O.#.#.#.#.#.O.O.$.$.$.O.O.O.$.*.*.%.T ",
"h j k k j g a a a a a g k k k k k k k k k k k k k k k k k k j g j k k k j g a a a a a j k k k k k k k k k k k k k B k B B B B g "
};
