/* XPM */
static char *_6e074493e5046d2e0410fcb9e75b381roH3neAfA696VuDG[] = {
/* columns rows colors chars-per-pixel */
"64 64 221 2 ",
"   c #050100",
".  c #0C0300",
"X  c #0D0A01",
"o  c #0C0B09",
"O  c #130301",
"+  c #1C0200",
"@  c #130C03",
"#  c #1B0B05",
"$  c #150D0A",
"%  c #1B0D0A",
"&  c #171207",
"*  c #1C1305",
"=  c #1C120C",
"-  c #1B1715",
";  c #240301",
":  c #2B0301",
">  c #230B05",
",  c #2B0A04",
"<  c #240E09",
"1  c #2B0E0A",
"2  c #340401",
"3  c #3B0400",
"4  c #350A03",
"5  c #3B0C03",
"6  c #350E09",
"7  c #231305",
"8  c #231B06",
"9  c #25110C",
"0  c #2B120B",
"q  c #26190A",
"w  c #2C1B09",
"e  c #3D1204",
"r  c #34140D",
"t  c #3A150D",
"y  c #36180D",
"u  c #3B1A0F",
"i  c #261311",
"p  c #2C1513",
"a  c #261E15",
"s  c #2D1917",
"d  c #341612",
"f  c #3A1611",
"g  c #351914",
"h  c #3C1A13",
"j  c #371B18",
"k  c #3A1E18",
"l  c #2B2107",
"z  c #2C2309",
"x  c #342609",
"c  c #3A2B0C",
"v  c #3E310D",
"b  c #2A221B",
"n  c #36231E",
"m  c #3D2018",
"M  c #32281C",
"N  c #2C2926",
"B  c #332622",
"V  c #322D2B",
"C  c #392D28",
"Z  c #37302D",
"A  c #3D3836",
"S  c #440400",
"D  c #4B0500",
"F  c #420A01",
"G  c #4A0901",
"H  c #530501",
"J  c #5B0400",
"K  c #540900",
"L  c #5D0A01",
"P  c #451709",
"I  c #581804",
"U  c #441C13",
"Y  c #4A1C17",
"T  c #4A1E16",
"R  c #640400",
"E  c #6B0300",
"W  c #640B01",
"Q  c #6C0B01",
"!  c #730300",
"~  c #7C0200",
"^  c #720B00",
"/  c #7B0B00",
"(  c #6C1002",
")  c #651D04",
"_  c #741402",
"`  c #7B1202",
"'  c #462908",
"]  c #582A08",
"[  c #44330D",
"{  c #4A370E",
"}  c #56330D",
"|  c #462014",
" . c #4B2115",
".. c #4D2215",
"X. c #4D2016",
"o. c #4F2216",
"O. c #41221A",
"+. c #4E2119",
"@. c #502316",
"#. c #522516",
"$. c #552517",
"%. c #552716",
"&. c #582717",
"*. c #552816",
"=. c #592917",
"-. c #542419",
";. c #562419",
":. c #5A261A",
">. c #5D291A",
",. c #4A3811",
"<. c #533F13",
"1. c #752706",
"2. c #6A3B08",
"3. c #773407",
"4. c #61271C",
"5. c #61291B",
"6. c #622A1B",
"7. c #642A1C",
"8. c #6A2C1E",
"9. c #44302C",
"0. c #473A33",
"q. c #433D3B",
"w. c #6D2E20",
"e. c #5D4700",
"r. c #544313",
"t. c #56411D",
"y. c #654E18",
"u. c #6D561A",
"i. c #755B1B",
"p. c #775A1C",
"a. c #796700",
"s. c #5E4820",
"d. c #49413C",
"f. c #6A5325",
"g. c #735C2C",
"h. c #494542",
"j. c #574B44",
"k. c #595449",
"l. c #555250",
"z. c #655A56",
"x. c #6A5B55",
"c. c #6A645D",
"v. c #72635D",
"b. c #696664",
"n. c #7D6F68",
"m. c #71706E",
"M. c #7E7B78",
"N. c #830400",
"B. c #8D0400",
"V. c #830B00",
"C. c #8B0B01",
"Z. c #930300",
"A. c #9B0300",
"S. c #930B01",
"D. c #9B0C01",
"F. c #831301",
"G. c #8B1301",
"H. c #851B02",
"J. c #8B1B02",
"K. c #951201",
"L. c #9C1502",
"P. c #931B03",
"I. c #9E1D04",
"U. c #A50300",
"Y. c #AE0600",
"T. c #A30B00",
"R. c #AB0C01",
"E. c #B30C01",
"W. c #A31402",
"Q. c #AB1301",
"!. c #A71C02",
"~. c #B51302",
"^. c #B91401",
"/. c #B11E03",
"(. c #BB1B02",
"). c #862505",
"_. c #8D2004",
"`. c #83350D",
"'. c #A52204",
"]. c #A92204",
"[. c #BF2204",
"{. c #C01602",
"}. c #C41B03",
"|. c #CA2604",
" X c #D12705",
".X c #D42B05",
"XX c #D43007",
"oX c #876A23",
"OX c #917537",
"+X c #907646",
"@X c #837975",
"#X c #9E855C",
"$X c #A98941",
"%X c #AE904F",
"&X c #B69656",
"*X c #958372",
"=X c #94847D",
"-X c #C1A77E",
";X c #8A8684",
":X c #958A86",
">X c #9C8B83",
",X c #9B948E",
"<X c #989693",
"1X c #A1928A",
"2X c #A39C97",
"3X c #A8A39F",
"4X c #B5A597",
"5X c #A9A5A3",
"6X c #B5AAA4",
"7X c #B7B5B3",
"8X c #C8AF81",
"9X c #C6BBB6",
"0X c #D3C3AB",
"qX c #C7C1BE",
"wX c #CCC6C2",
"eX c #D2CAC6",
"rX c #DAD3CE",
"tX c #DBD7D5",
"yX c #E0DDDA",
"uX c #E4E0DE",
"iX c #E8E5E3",
/* pixels */
"g p p p d d g f f f h h f f d d d f f d p p p d g g g g d d d d g p p p d g f f f f h h h f f d d f g p p p d g g g g g d d d | ",
"5.;. .X.>.5.5.:.;.>.7.7.5.:.X.U h ;.5.5.;.;.:.5.5.5.5.5.5.;.@.5.7.;.X.;.:.5.5.;.;.:.5.7.5.#.X.h U :.5.>.>.>.>.5.5.7.7.7.>.:.:.;.",
"%.%.%.%.%.%.%.%.%.=.=.%.%.%.#. .h #.&.:.5.5.>.%.%.%.%.%.#.#.@.#.%.X.T T @.%.#.X.T X.@.#.#.X.T h U T ;.:.:.:.:.%.%.%.%.%.%.#.%.X.",
"*.*.%.#.#.X.#.%.%.%.#.#.#.#.#. .h X.*.*.*.%.#.X.X.#.#.#.#.#.X.X.T T T T X.X.T T T T  .T T T X.h U T T T T X.X.X.X.T T X.X.#.#.X.",
"*.*.#.X.X.#.#.#.#.@.X.#.#.#.X.U g  .#.#.X.U t t u u u U X.#.#.X.T T X.T u r r r r r u U T X.X.h U T T T T X.@.X.T T T X.X.X.X.T ",
"#.X.@.#.#.#.#.X.X.#.#.#.@.#.#. .h  .U h u 6 4 , # # 9 h #.#.%.@.T U h r < # ; + O @ < t  .T T h U X.@.@.X.X.X.X.X.X.X.X.T T T T ",
"X.X.X.X. . . . . . . .X.X.X.#.| g U r , 4 H R H : # 0 U X.X.X.T h 1 > > ; 2 4 ; O @ 9 h U U U d h U T T T T T T  .T T T U T  .U ",
" .| U U U | U U U U U  .T U U h r 0 4 S J ~ N.J 4 0 h  . .U h t < # ; 4 S D 3 ; > 0 h U U U h d d h h h U U U U U U U U U U T U ",
">.;.T ;.>.:.;.+.;.:.>.:.;.U U h 6 5 J V.S.N.J 5 r r T :.>.T d r , 4 G D D 5 : 1 h ;.:.:.X.U U h h h U | U U U h f U @.:.:.;.:.@.",
"8.5.:.7.w.8.5.:.7.w.w.8.:.U f t G / D.D.N.J 5 u u f @.7.5.U 1 4 K L H 3 2 : , U :.8.w.8.:.X. .T T T X.#.X. .T U h U >.8.8.5.8.:.",
">.:.%.>.>.>.:.=.>.>.>.:.@.U 6 D V.Q.~.B.H 5 U | U h  .@.U 1 ; S W W H : + > t T ;.:.:.:.@.X.X.X.X.X.X.X.X.X.T U h U @.:.:.;.;.X.",
"#.%.%.#.#.#.#.*.%.#.#.X.u 6 H V.~.^.E.N.3 0 |  .h g h r > ; 3 K W K 3 : O < U T T X.X.X.X.X.X.X.X.T T T X.X.X.U h h  .X.T T X.T ",
"%.#.#.#.#.%.*.#.#.#.X.u r G ~ R.~.T.A.~ 4 0 X. .h p 0 # O + 4 K L G : + . @ r U X.X.T X.X.T T T T X.X.X.X.X.X.U h h T T T X.X.T ",
"*.#.#.%.*.*.#.#.#.#.U 0 4 R Z.U.D.C.B.~ 2 0  .| d 0 q * @ O + , D 4 + O @ @ # r U T T X.T T T T X.X.X.@.@.@.X.U h h U T X.X.T T ",
"#.X.%.%.*.%.#.X.#.X.u > D N.A.Z.V./ N.~ 2 0 T U 0 w { ,.c 8 @ O + O O * l l * # r U X.X.T T T X.#.X.T X.#.#.X.U f h U T X.T T T ",
"T X.#.#.#.X. . . .h 6 D ! Z.B./ ^ / N.~ 2 0 h 0 O 8 r.i.u.,.x * . . @ & 8 8 @ . 9 U  .U  .X.X.T U U  . .T  .T U f h U T T T U h ",
"T X.X.X.T U h h f 0 2 E A.A.N.^ Q Q N.~ 4 < 0 @ . * [ i.oXi.y.[ 4 > # ; , ; . . # d h h U U U h h U k U T U U U T T T T T U U U ",
":.5.5.5.>.;.X.U U r S ~ A.Z./ ^ W K / V.3 0 r # 7 v r.r.y.p.p.3.` G 5 Q F.Q 3 + O < h U  .:.>.U X.;.@.%.:.@.X.;.>.>.:.:.:.;.X. .",
"*.=.=.&.%.%.#.| r 5 R B.Z.N./ ^ L D Q V.5 0 r 7 [ u.i.,.c } 1.I.W./ _ /.[./.V.K ; O > r U X.@.U T @.T X.@.X.T X.@.@.%.%.%.%.#.X.",
"%.%.#.#.@.#.#.U > S N.A.B./ Q Q L D ^ S.K , < * { i.y.c # ; J C.S.K.W.|..X.X(.K.H ; ; , r U T h U X.T T X.X.T T T T X.#.#.#.#.X.",
"%.#.X.@.#.#.| t , H B.Z.N./ ^ ^ L D E D./ 3 . X l c l @ O ; 2 D / S.Q.{. X.X.X(.V.L H 2 < h  .h U X.X.T T X.X.T T T T X.X.X.X.T ",
"@.#.#.#.#.@.u , G ! B.N./ ^ Q Q L D R Z.S.K O   X 8 z l 7 ; : 3 W / L.^.}. X.X|./.C.W 4 # h X.U U T X.X.X.X.X.X.X.X.X.X.X.X.X.T ",
" . .X.X.X.T r , J Z.Z./ ^ Q Q Q L S S E S./ 2 .   @ x <.[ 7 O : D Q C.Q.(.|.|.|.Q.C.Q 4 # r U f U U U T  . . .T U U U  . . .X.U ",
"h h h h h d < : E Z.B./ ^ ^ Q W D 2 2 H C.D.R +     8 ,.[ * . : R V.C.V.` H.P.K.S.C.Q 4 O 0 f r d f f d g g g d d d d f h h h U ",
"d f f f f d < : E B./ ^ ^ ^ Q K 2 : : D V.T.N.S O   . > 7 # . 2 / D.K.W 5 ' 2.) ^ / L 2 # 9 d f f f d d d d d d d d d f f f f | ",
"f ;.%.X.;.;.h 4 E B./ ^ Q ^ Q D 2 ; ; 3 E C.A.! 3 O . ; ; O   + H C.W.J.I e.a.] K H 3 r U U @.:.:.:.X.U X.;.;.:.:.:.:.:.:.%.T #.",
"f &.>.%.:.:.U 4 ! S./ ^ ^ Q W D : + O ; S Q C.B.E 4 + + O     . ; W G.G.).3.e.1./ R 2 r X.#.;.:.>.>.@.X.#.:.:.:.>.>.:.:.:.;.X.#.",
"d X.%.%.#.X.t 4 / S./ ^ Q W K 2 ; > < > : D / N.C.^ D ;   . + + O 3 W / J.H.` I.W.Q 2 0 U X.X.@.@.@.X.X.X.X.X.X.X.X.T X.X.X.X.#.",
"d X.X.X.@.X.u 4 ` L./ Q W H 3 ; < t U r > 4 L / S.T.N.S ; 2 H D ; : 3 L ^ V.K.!.F.K , r U T X.X.X.X.X.X.T T X.#.#.@.X.T T T X.#.",
"f X.#.#.#. .r 5 H.!.F.Q K 2 + < u T U r + ; G Q C.A.B.W L / C.N.K : ; 3 K W ^ ^ G , 0 u T T T T T X.#.@.@.@.X.X.X.X.@.@.X.T T @.",
"f #.%.%.#.T r 5 J.].F.Q G + . 9 | T r > + + : L / ! / F.!.(.^.U.N.S ; : 2 2 4 3 ; O # y U T T T T @.#.#.#.#.X.T T T X.#.#.T T X.",
"d U | | | U r 5 _.].` L 2 O O 0 h h < . + : 2 5 G D W '.XX.X}.E.A.R G 5 2 + + ; : + O # r U U U U U U h h h h h h h h h U U h U ",
"+.T h h +.+.h e _.]._ S + O 1 f f U 0 O : D D + . ; W !..X X{.Y.A./ Q ^ E K 3 3 D G # $ i g U h U @.;.| U U  .@.@.@.@.;.+.X.+.@.",
";.;.X.X.;.;.h e _.]._ 5 + # u U h T 0 + G L G O   : Q W.(.^.R.Z.V./ N.Z.Z.~ R W W H 1 C 0.n d r U @.:.5.7.7.>.:.>.>.>.>.;.@.;.%.",
"X.h f U X.X.t e _.].( 2 > r |  .h | 0 + D K 4 O O S / T.T.C.! E / N.Z.U.U.A.B./ / R f k.n.j.n < f T X.;.;.;.@.@.@.X.X.X.@.#.%.*.",
"| d d f  . .t e _.].( : 0 U #. .g | 0 O 2 3 ; O : R D.R.B.R S D ~ A.E.E.Y.Y.A.V.B.~ T z.,X=Xd.% d U T T T T X.X.T T T T X.#.%.*.",
"U U U T X.X.u e H.I.W ; < U X.| h U 0   . + + + D V.R.E.V.S 2 J A.E.{.}.~.R.D./ V.Q t 0.=X5Xc.% g T X.X.X.X.X.X.T T X.X.X.X.X.X.",
" .X.#.#.#.X.u 5 ` F.G + < U #. .h U 0     . + 2 Q T.E.R.^ 2 : J D.^.(.Q.D.C.V.J G 2 < b v.3Xb.= d T X.X.X.X.X.X.X.X.X.X.T X.X.X.",
" .X.X. . . .r 4 ^ ^ , O < U X.| h U 9     * w F / R.R.C.D + ; S ^ K.L.S.S.S.C.E 2 O @ q k.2Xb.= d U U U U T  .T T T T U U T T T ",
"g g g g g g 9 , E R ; O < r h g p p %   . 7 c ] _ S.D.! 4 O O : H / K.L.Q.D.V.E 2 O @ = k.<Xb.$ 9 d d d f f h f f f f f d d f U ",
"g d p d g d < : R R : < r r d p i 9 $ . O # 8 { ] ( B.~ D O . + D ^ G.I./.L.R 3 + . @ = j.,Xc.$ < i p d d d d d r r f h d d h U ",
";.+. .@.;.;.r : J H , f T U U U d d < . O O # z ' ) C.Z.R ; . . , P I I G.K.Q 2 . . X & d.M.l.% 0 h U U U U U h f h X.;.;.X.;.T ",
":.;.%.=.:.%.u > 2 : > h #.#.X.X. .U 0 . O # 0 0 q P / W.G.G + . w s.t.< G Q W : . X X o N h.V % t U T T X.X.X.U h U @.;.;.@.@.T ",
"%.%.#.#.#.#.U < O O < U @.#.#.#.%.| 0     # r y # ; L !./.` 2 * r.OXOXq n +.5 + . X $ V h.A - @ < r f T X.X.X.U h h T T T X.X.T ",
"%.#.X.#.%.*.X.y # # u X.#.#.*.*.*.U 9 o b N s 0 @ O F P././ 5 x oX%X+X0.x.z.9.V V V h.M.2X@Xj.V V B n h h U  .U h h U T T X.X.T ",
"%.#.#.%.*.*.#.U < 9 U X.#.*.*.%.X.h < N m.M.j.b @ . , ` G.K 0 t.$X&X*X@X1X2X:X<X<X<X5XqXrXqX5X<X;X@Xz.C i 0 U U h h U T X.X.T T ",
"#.#.%.*.*.%.#.U u u | @.#.#.#.X.T r 9 A 5XwX:Xj.a X ; Q ^ e ,.+X8X4X4X6X9XeXtXtXuXyXyXiXiXiXiXtXrXqX3Xb.V % 0 r f h U T X.T T T ",
"U U U U U U h h h h h h h h h h g 9 % A 7XyX6Xx.M @ ; Q ` ] f.%X0X0X9X9X9XeXtXrXtXrXeXtXiXiXuXtXeX7X5X;Xq.% # 1 d f f U U h h U ",
"4.5.5.5.4.;.U U U ;.:.;.U T :.;.U T p A <X2Xx.B $ . + W ).2.,.s.&X-X4X1X=X>X>X=X=X>X=X3XwXqX6X>Xn.h.N B O.U U T T U U T :.;.X.T ",
"5.5.5.>.>.%.@.X.#.:.:.%.#.#.;.@.U X.r - q.q.n g h 0 # , e x 8 v OX&X#Xj.v.x.0.C C Z d.@X5X:Xz.9.B j d h  .X.X.&.7.8.8.8.5.%.X.T ",
"*.*.*.%.@.#.*.*.%.#.#.#.*.#.#. .h | u 0 0 0 0 r U U 0 O O @ @ 8 u.$XOXb 9.9.6 # .   - q.z.d.n 9 0 h U T X.T U U ;.>.5.:.@.T T T ",
"*.%.#.#.@.%.*.%.#.#.#.%.#.#.#.X.h X.#.X.X.| U f h h 0 > ; : : , c g.f.@ O , 3 ; .     o $ = d d U T T T X.T h d h U  .T T T T T ",
"#.#.#.#.#.%.#.#.#.#.#.X.X.T U T h X.#.#.%.#. .U h 0 > 3 J ! ! D # 8 = . O + O O . . . . @ 0 U h U  .X.T X.X.T U h U U T T T X.T ",
"#.#.#.#.#.#.#.#.#.X.U h h U U U U #.#.#.@.#.@.X. .r > , H E R S + . . O O . . < 0 0 9 < 0 h T U U T X.X.X.X.X. .T U T X.X.X.X.T ",
" . . . . . . . . .U g p d U U U h X.X.X. . . . . .h 0 ; 3 J J S : O . ; + . . 0 h h i i d U T h U U U U T  . .U U U U T  . . .T ",
"f f f f h h h h g g p i d g d h f U U h h h g h h g 0 # ; D E E D + . + + O @ % 9 9 i i d h h f f f f d d h h h g g g f h h h U ",
"d U U h U h h h g h h h h h d U U U U f d h k h h h d < # S ! S.` e @ . # * * * # % 9 g h g h U U U h g h h h k k k h U U U h  .",
"f %.%.X.;.;.;.#.X.+.;.;.;.X. .;.;.;.@.T  .@.;.;.;.;.X.h 0 2 Q P.`.} z @ z l 8 x l * 9 h X. .@.:.:.:.X.|  .;.;.;.;.;.;.;.;.@.T *.",
"f %.=.%.%.%.*.*.%.;.;.;.%.@.X.%.;.;.%.#.X.@.%.%.;.;.%.X.r > F I } [ z @ l 8 & z w @ @ r X.#.#.%.;.;.X.X.#.#.%.;.;.;.@.;.;.@.X.%.",
"f X.%.*.%.#.@.#.%.%.%.#.#.#.#.X.X.X.X.X.X.#.#.%.%.%.%.#.u < > < 7 7 # # * * # * # # # r T X.X.@.#.#.X.X.X.X.X.X.X.T T +.X.X.X.%.",
"f X.X.X.@.#.#.@.@.@.#.%.%.*.*.#.#.#.#.#.#.%.#.X.T X.@.#.X.U h r r u h h h h u h h h h U T T X.X.X.X.X.X.T T X.X.X.X.X.T T T X.#.",
"f X.#.#.#.X.X.X.#.#.X.X.#.*.*.*.%.#.X.X.X.X.X.U f U  .X.X.#.#.U h T X.X.X.X.X.X.X.X.X.X.T T T T T X.#.#.#.X.X.U U U X.X.X.T T @.",
"f #.*.*.#.#.X.X.#.#.#.X.@.@.@.#.@.#.X.X. .U h d p d h U X.X.X.U U U T T T X.X.X.X.X.X.X.X.X.X.X.X.X.X.X. .U h d p d h  .X.X.T U ",
"d k m m m m k k k k k k k k k k k k k k k g s s s s s g k k k j g j k k k k k k k k k k k k k k k k k k g s s s s s s j k k k k "
};
