/* XPM */
static char *aaf522aca27a4e55f13b1b6ea45928acGPQydzhhoTrS04Is[] = {
/* columns rows colors chars-per-pixel */
"64 64 61 1 ",
"  c #231213",
". c #2C1514",
"X c #2D1C1C",
"o c #331411",
"O c #391712",
"+ c #351915",
"@ c #3C1A14",
"# c #301D1C",
"$ c #3D1C18",
"% c #3A2314",
"& c #441C15",
"* c #4B1F17",
"= c #431E19",
"- c #4D1F18",
"; c #442115",
": c #4D2117",
"> c #4F2118",
", c #4E221B",
"< c #4C2418",
"1 c #4D2418",
"2 c #502316",
"3 c #522717",
"4 c #542716",
"5 c #542717",
"6 c #552816",
"7 c #572A17",
"8 c #502118",
"9 c #51231B",
"0 c #55231A",
"q c #532518",
"w c #542518",
"e c #55241A",
"r c #58251B",
"t c #58271B",
"y c #5C271B",
"u c #5B261C",
"i c #5A2919",
"p c #5D281B",
"a c #5E2C1A",
"s c #5C281E",
"d c #5F311B",
"f c #60271D",
"g c #612C1B",
"h c #612B1C",
"j c #652A1E",
"k c #632C1C",
"l c #642E1C",
"z c #682B1F",
"x c #6A2F1E",
"c c #6B301E",
"v c #642B21",
"b c #682B20",
"n c #6B2D20",
"m c #702F21",
"M c #6E3120",
"N c #733221",
"B c #743221",
"V c #7A3423",
"C c #783324",
"Z c #7B3424",
"A c #803626",
/* pixels */
"3.o...........OooooOOOOooo.......oo.......  .ooooooOOOOoO+..  ..",
">mhxBBBBNNllxNm<@33NNmml5Nmml3iBBwsmmmmNNjuumNhO<2hmNBNqlNBN::jm",
":333333333jjhw*&o**33:***33:**:3333333333pcc366O3633366633366633",
":66::***3::****&+::*:3::*:63::**::366663:666666+<666356663:66666",
"*-:36***:66-***<+66**263**:366**363:36665:36663+&:366::6666::666",
"*-:**66::*:6666&+**65:::65:::*6336663:56663:::3+<63:366::3666::6",
"&33:**:33::****&+***:33:::333:*:3366663:2366666+36663:3563:<5662",
"&@@+@@@@@&&@++++.+@@@++@@++++@++@++@&&&&&@&&@@@o@&&&@@++@@@@+@@@",
"3ztszj;o@&&<<<@@@&<<bvvvv<vvvv<vv=8vz8o@<<&&@&;;;&&0vvvs*uvvs*uv",
"8AcBAZ3O&*:666<**:66AAAAAaAAAAaAA0jAAso&66:-*3666**hAAACtnAACtmA",
"***36:*o&::***663::*63:**:3::*:3363:36o&666663::5663:56663666626",
"*::*-3<.;33:::**:33:*:3:**:33:*:36665:.+::3566663:366336663:5662",
":33:**&.;3:3333****33*:33***:33*:35666.+335333366653663366663366",
"**:3-*&o;3333332:***3:*:32****3:333366o@333333336665366336666336",
"***3:*&o&*665:*63***:3***6****:3363:66O&63**663*66662666:36666:6",
"O&&&3&&o&&3&<<&&<<<3&<<<&*:&&&&<333<<3o&3::3&<<<&&&<3&&33<33333*",
"3@&------@&-&+==+==@+==$+@@-----&*------*O&-+$=+==@o$==+O+*-----",
":3thhhxxjqqjkwhu&xx3wxly33ilhhhlilxxxlhll3gj3gx&uht3phx333hxxxxh",
":55553:::*:3:**3O::*-:33**:33**::::::3566633663O<5666526666:6666",
":55553****:3**:3O::::*33:**33::*:::::5666636663O355566:5666:5566",
"*::***::::5*::6&O:565:::6:**:63:366666666336633@3:::366:3666::36",
":33::23333::33*&@5:*:33:*3:::*:3333333:::353266@&6663:363333663:",
"@33332***333::*&@33***:33:333333333336666333666@:366663365333333",
":OOoo........ooooo+........oOOOOOOOOo.......OOOoO........+.OoOoo",
"5oooo        .ooo.         .oooooooo.       ooooo          ooooo",
"66lBBVVVVVBx66BVVMiBBBVx6BBCx6Bu&NVVCBBBBBVw:lBBB:xVVBBqnVVNqnVO",
"6*:223333322::3333322332**:32**&<33332:222336322233333366633666o",
"63333***--33333333333:***33:**:&&333566665333333333336663336663o",
"6::-*:6666--*:::::****356::3663&&66663:::3666666666666::366:::3o",
"6--333::2:55333*****333:2553:::&<63::33333::::366663::333::3356o",
"3*:365****66656:::::66:::66:***&<63::36663::::366663::65:::6666o",
"&+&@++++++++++&<<*<*&&&&<&+++++++&&;;;;;;;;;;;&&&&&&<<;&&;;;;;;.",
"6sqwssssss;;<uh&O<<fhhhw<hssq;;ss&>ssssss>++ss8O@&0hhhu&tssu++8s",
"6w8iaaaataVVNgw*O::apww8:pww8:8aa6wwwwwiphBBwpi@<6wwpaa5wpaa66ww",
"666:****5:*****&+***:3***:63&ooO**366663:666666+<666:6666:*6ooo5",
"6662:***3::****&+::*-3::*:63&OoO*:366663:666666+<666356663:3oOo:",
"3**333:-*333333<+333::333:*:33:@:63333666333333+<3336333366333&&",
":3:**2333::2222&+**:33::23332*23366663323653336+<663326333236533",
"*:3:***::65****&O****:366*::36*:3:3666663:36666@366666::6665:666",
"*o. oooooooo.     .o.           .   oooooooo     ooo.           ",
"*&++&&OooooOO+. .oOO&+++++++++++@+++&@ooOOOo... .ooO@+++.++++.++",
">bplMj:O&*:3333&&:33Mnbbbwnbbb6nnwpbbpO&663333*@333pbMMxthMMxthM",
"***::3:o;33***::233*:3:**:332*:366633:.@::5666333266326665236652",
":63**:&.&::63:**-::6*:33**::36*::66666.@663:6666663366:66666:666",
"**3:**&.<6**:66*****6**36---**6*3:3666.+*366**366663366:566i6:56",
"**:3:*&o&:553:@53***:3*::3****:3363366o&53::3&&:6666366335666636",
"***23*&o&*6333.<3333:33:*3:***:3665356O&63:33Oo<3335333633666633",
"*OOO@OOoOO@OO+ .+++@+++++O+OOOO@@@@@@@oO@@@@+. +++oO++++@+@@@@@O",
":3kB5&*<x56Bb6Nb&NN36NNl33pBBBBBtbBn:3*sb&jB&hN&bNw&hNn&&&nBBBBB",
"***3ZZZZg**:3-**@66*:63***:3****363wZZZj:66:666@*:36::6666:66666",
"*****66:Oo:3***3O*****33***33***36663*6&o&:6663O3666ii:6666:6666",
"*****&@+o@3:**3:O:332*:33**:33:*3666:+@Oo<36653@33336iq366633366",
":3:**&;;<3:*:3:&@:&:23:::3**::2336663&@&&366:36@<O<33:633666333:",
"*:3666:::::63:*&@3*o.+33*:663**:3::::366663:666@&3&o.<:66:::6666",
":6:******53****&O:3*  +:5***:666:36665553*<5666@<*<@  5<3553****",
"*oooo        .ooo.         .oooooooo.       ooooo          ooooo",
"a&:00>>>>>><@&000>@>>>><@>>0>&0*O80008>>>>>+@-000+=>>>>+<>>0&8to",
"d:wuulllllut::kllpquuslp:uuhp:u*&gllhuuuuhl63tuuu5pllut6gllt6glo",
"6*366:::::663:::::6663::**:q:**&<:::366663::66666::::66666:6666o",
"663***::::**:66663:***:::63::::;&66666666666:::::6666666::6666:o",
"6**:::63<6:::::*****::366::3663&<66563&&*3666666666666::366:::5o",
"6**366*@o<66666*****663::663:::&<63::3Oo@3::::366663::66:::6666o",
"@*:3:O.. .+&:::33333::::3:::***&<333<O. .+o<333::::3336:3336666o",
"%XXXXXXXXXXXXXX#####XXXXXXXXXXXXXXX#XXXXXXXX##XXXXX###XXX######X"
};
