/* XPM */
static char *dbe9c738396142e7829a63f476c51430MiltH9vMREtPewKi[] = {
/* columns rows colors chars-per-pixel */
"64 64 62 1 ",
"  c #3D353D",
". c #40373E",
"X c #41383F",
"o c #443C42",
"O c #483F44",
"+ c #4B4246",
"@ c #4F4549",
"# c #51474A",
"$ c #554B4D",
"% c #594E4F",
"& c #5A4F50",
"* c #5E5252",
"= c #605654",
"- c #645857",
"; c #655C5A",
": c #6A5E5A",
"> c #6D615D",
", c #70645F",
"< c #726660",
"1 c #756963",
"2 c #7B6E66",
"3 c #796E68",
"4 c #7D7067",
"5 c #7E7168",
"6 c #81746B",
"7 c #83776C",
"8 c #85786E",
"9 c #877A6F",
"0 c #857A70",
"q c #897C71",
"w c #8C7F73",
"e c #8A7F75",
"r c #8D8074",
"t c #8D8175",
"y c #908376",
"u c #918477",
"i c #938679",
"p c #948779",
"a c #95887A",
"s c #95897C",
"d c #988B7C",
"f c #998C7E",
"g c #9B8F81",
"h c #9C8F80",
"j c #9B9081",
"k c #9F9283",
"l c #A19483",
"z c #A39685",
"x c #A49786",
"c c #A69987",
"v c #A79A89",
"b c #AA9D8B",
"n c #AEA28F",
"m c #B0A38F",
"M c #B0A390",
"N c #B2A591",
"B c #B4A792",
"V c #B6A994",
"C c #B7AA94",
"Z c #B9AC96",
"A c #BFB29B",
"S c #C1B49C",
/* pixels */
" OOOOOOOOO OOOOOOOooXOOOOOOOOooXoOOOOOOOXoXOOOOOOOooXoOOOOOOOOOO",
"o:::::::::%:::::::;=$<:::::::-:&::::::::*-#,::::::;;*=::::::::::",
"X*********$*****************************************************",
"X*********#*********+-*********$**********o=********%#**********",
"X*********O*********o**********##********* *********%@**********",
" @@#*;;;;;;;;;;*;;;;;;;;;;$;;;;;;;;;*-;;;;;;;;;;*;;;;;;;;;$;;#*@",
"o;;:<yyyyyyyyyy2Ayyyyyyyyy1xyyyyyyyy5Nyyyyyyyyyt0iyyyyyyyq>22;<;",
"X****5555555555:B555555555:a55555555>v55555555542655555551%*****",
"X***&5555555555-z555555555*t55555555:s5555555552>655555551$*****",
"X***$5555555555%2555555555o555555555-<5555555552%555555551o*****",
" @@@+==========+*=========X=========#&=========*+========*.@@@@@",
"o1111115tntnnnnnnnk6=nnnnnnnnav>snnnnnnn2i&nnnnnnnkk,qnnnnnnn1f1",
"X*********5955555555%n555555555>i555555555ok555555551#**********",
"X*********-555555555:555555555511555555555=5555555552***********",
"X*********<955555555#C555555555:s555555555 c555555551@**********",
" $$$$$$$$$@>>>>>>>>>+>>>>>>>>>>**>>>>>>>>> >>>>>>>>>-O$$$$$$$$$$",
"X**=15555555555>5555555555=555555555<25555555555>555555555;55*<*",
"X****5555555555>A555555555<f55555555,N55555555545755555551******",
"X***%5555555555*q555555555@755555555;55555555552=555555551+*****",
"X****5555555555:m555555555;i55555555>z55555555541655555551%*****",
"X***$5555555555%2555555555o555555555-<5555555552%555555551o*****",
"          Xoooooooo  ooooooooXo oooooooo X ooooooooo            ",
"o>>>>>>>>>iclllllld9*Sllllllluh,zlllllll6t@Cllllllas1*>>>>>>>>>>",
"X**********555555555;7555555555<1555555555*6555555552***********",
"X*********>655555555=p555555555,7555555555$t555555551%**********",
"X**********655555555#t555555555:1555555555 q555555551@**********",
" $$$$$$$$$#<<<<<<<<<+<<<<<<<<<<==<<<<<<<<< <<<<<<<<<:+$$$$$$$$$$",
"o--:7tttttttttt1ettttttttt:ttttttttt50ttttttttte1ttttttttt<tt-5-",
"X****5555555555>A555555555,f55555555,M55555555545755555551******",
"X***%5555555555-k555555555*w55555555:i5555555552>655555551#*****",
"X***$5555555555*6555555555O655555555-15555555552*555555551o*****",
" ###@::::::::::#::::::::::o:::::::::$=::::::::::#::::::::-X#####",
"o::::::<5g5jjjjjjjt1*jjjjjjjj0s-0jjjjjjj>7$jjjjjjjtt;5jjjjjjj>q:",
"X*********7955555555$C555555555>s555555555oc555555551#**********",
"X*********=555555555:555555555511555555555=5555555552***********",
"X*********1q55555555#A555555555:g555555555 b555555551@**********",
"X*********$555555555#5555555555::555555555 5555555551@**********",
" ......... ooooooooo ooooooooooooooooooooo oooooooooo ..........",
"o114kNNNNNNNNNNiSNNNNNNNNN9ZNNNNNNNNfVNNNNNNNNNmaNNNNNNNNM0bb2s1",
"X****5555555555>A555555555<f55555555,N55555555545755555551******",
"X***$5555555555*6555555555+655555555-15555555552*555555551o*****",
"X***&5555555555=k555555555*w55555555:i5555555552>655555551#*****",
" +++O**********+**********.*********#%**********+********&.+++++",
"X*********175555552>#s555555515*55555555:<Ot55555522=#**********",
"X*********-655555555-t555555555<5555555555%q555555551&**********",
"X*********>655555555-q555555555<5555555555%9555555551&**********",
"X*********-655555555#a555555555:5555555555 t555555551@**********",
"X*********$222222222#2222222222::222222222 222222222<+**********",
".%%*<3333333333;3333333333*333333333>13333333333;333333333-33*>%",
"o===:9999999999<A999999999<k999999991N99999999997q99999995-::=;=",
"X****5555555555;b555555555-u55555555>k5555555552<655555551$*****",
"X****5555555555;n555555555;i55555555>l55555555521655555551$*****",
"X***$5555555555%2555555555o555555555-<5555555552%555555551o*****",
" OOOo$$$$$$$$$$o$$$$$$$$$$ $$$$$$$$$+#$$$$$$$$$$o$$$$$$$$# OOOOO",
"O555555qfSfSSSSSSSmt:SSSSSSSSzZ1cSSSSSSS7k=SSSSSSSnn2sSSSSSSS6b5",
"X*********2955555555*x555555555>e555555555+d555555551$**********",
"X*********>655555555=f555555555,9555555555#u555555551%**********",
"X*********$555555555#5555555555::555555555 5555555551@**********",
" oooooooooo@@@@@@@@@X@@@@@@@@@@++@@@@@@@@@ @@@@@@@@@+.oooooooooo",
"X**=<2222222222:4222222222-222222222>12222222222>222222222;22=,*",
"X***************4*********-:*********1**********;=**************",
"X***$**********+**********o*********#%**********+*********o*****",
"X**************$,*********$;********%>********************$*****",
" XXX XXXXXXXXXX XXXXXXXXXX XXXXXXXXX  XXXXXXXXXX XXXXXXXXX XXXXX"
};
